<svg width="111" height="23" viewBox="0 0 111 23" fill="none" xmlns="http://www.w3.org/2000/svg">
<path d="M7.36 22V20.624C5.76 20.624 5.184 20.464 5.184 19.44C5.184 18.896 5.44 18.128 5.632 17.584L6.56 15.248H13.92L14.656 17.168C15.008 18.064 15.296 19.12 15.296 19.6C15.296 20.56 14.208 20.624 13.408 20.624V22H23.68V20.624C22.208 20.624 21.376 19.632 20.512 17.584L13.6 0.815998H10.24L3.296 17.52C2.304 20.048 1.696 20.624 0.064 20.624V22H7.36ZM7.136 13.584L10.368 5.616H10.496L13.344 13.584H7.136ZM36.0008 22V20.624C33.2488 20.624 32.8328 20.272 32.8328 17.68V12.72H33.4728C34.5608 12.72 35.0088 12.848 35.5848 13.84C36.8648 15.92 37.4728 16.848 40.3528 22H47.6168V20.624C46.1448 20.624 45.2168 20.4 44.2248 18.992C40.7688 14.16 39.8728 12.656 38.8488 11.984V11.824C41.5048 11.216 43.9048 9.872 43.9048 6.352C43.9048 2.288 39.9688 0.976 35.5208 0.976H25.0888V2.352C27.6488 2.352 28.0648 2.96 28.0648 4.848V17.648C28.0648 20.272 27.5208 20.624 25.0888 20.624V22H36.0008ZM32.8328 11.152V2.64C33.4408 2.544 34.0808 2.544 34.7528 2.544C37.7288 2.544 38.9448 4.144 38.9448 6.576C38.9448 10.064 37.2488 11.024 34.0488 11.184L32.8328 11.152ZM62.3125 22V20.624C59.5925 20.624 59.2405 20.272 59.2405 17.36V2.768H60.6485C64.2005 2.768 64.5845 3.856 65.3205 7.312H66.9205L66.6325 0.976H47.1445L46.7925 7.312H48.3925C49.0645 3.856 49.4805 2.768 53.0325 2.768H54.4725V17.36C54.4725 20.272 54.1205 20.624 51.3365 20.624V22H62.3125ZM70.0943 22.416C70.0943 21.808 70.4463 21.424 70.9263 21.424C71.6302 21.424 72.2383 22.384 75.3423 22.384C80.1423 22.384 83.3743 20.24 83.3743 16.272C83.3743 12.24 80.3663 10.448 77.3263 9.072C74.7343 7.856 72.4623 6.96 72.4623 4.624C72.4623 2.928 73.6143 2.128 75.8863 2.128C78.2863 2.128 79.7583 3.472 80.7183 7.344H82.2223L82.0303 0.623999H80.8143C80.6863 1.264 80.2383 1.392 79.8543 1.392C79.0543 1.392 78.0943 0.623999 75.6623 0.623999C71.3103 0.623999 68.5583 2.448 68.5583 6C68.5583 9.904 71.1503 11.312 74.1263 12.784C76.5903 13.968 78.8623 14.992 78.8623 17.744C78.8623 19.888 76.9103 20.592 74.8623 20.592C72.2703 20.592 71.0223 19.6 70.0303 15.504H68.4303L68.7183 22.416H70.0943ZM100.856 22V20.624C98.2958 20.624 97.6238 20.4 97.6238 17.616V14.032L102.424 5.104C103.8 2.704 104.472 2.448 106.296 2.352V0.976H99.0318V2.352C100.664 2.352 100.856 2.704 100.856 3.152C100.856 3.472 100.696 3.92 100.536 4.176L96.5998 11.92H96.3758L95.1598 9.328L92.4718 4.464C92.1838 3.952 91.9918 3.44 91.9918 3.088C91.9918 2.608 92.2478 2.352 93.9758 2.352V0.976H84.0237V2.352C85.5278 2.352 86.1358 2.608 88.5358 6.672L92.8558 14V17.616C92.8558 20.432 92.5038 20.624 89.6878 20.624V22H100.856ZM107.822 22.32C109.422 22.32 110.318 21.36 110.318 19.888C110.318 18.448 109.454 17.488 107.854 17.488C106.222 17.488 105.326 18.448 105.326 19.888C105.326 21.36 106.222 22.32 107.822 22.32Z" fill="#292929"/>
</svg>
